<svg xmlns="http://www.w3.org/2000/svg" viewBox="0 0 55.8 14.95"><defs><style>.cls-1{fill:#17499d;}.cls-2{fill:#eae83a;}</style></defs><g id="圖層_2" data-name="圖層 2"><g id="圖層_1-2" data-name="圖層 1"><polygon class="cls-1" points="44.72 10.72 44.32 10.15 54.91 10.86 44.72 10.72"/><polygon class="cls-1" points="45.21 9.93 44.81 9.36 55.4 10.07 45.21 9.93"/><polygon class="cls-1" points="45.33 9.16 44.94 8.61 55.13 9.29 45.33 9.16"/><polygon class="cls-1" points="45.3 8.22 44.91 7.66 55.49 8.37 45.3 8.22"/><polygon class="cls-1" points="44.75 7.16 44.35 6.59 54.94 7.3 44.75 7.16"/><polygon class="cls-1" points="45.61 6.29 45.21 5.72 55.8 6.43 45.61 6.29"/><polygon class="cls-1" points="45.37 5.42 44.97 4.85 55.56 5.56 45.37 5.42"/><polygon class="cls-1" points="45.48 4.71 45.09 4.15 55.68 4.86 45.48 4.71"/><polygon class="cls-1" points="45.4 3.71 45.01 3.15 55.59 3.85 45.4 3.71"/><polygon class="cls-1" points="45.61 2.72 45.21 2.15 55.8 2.86 45.61 2.72"/><polygon class="cls-1" points="44.56 1.72 44.17 1.16 54.76 1.87 44.56 1.72"/><polygon class="cls-1" points="44.38 1.07 43.85 0.31 54.6 1.26 44.38 1.07"/><path class="cls-2" d="M9,12.9c-2.19,1.62-2.75,2.27-4.06,2C3.08,14.48,1,12.22.21,11c-.38-.64-.28-.92.54-1.1a17.08,17.08,0,0,1,3.71,0c.81,0,1.86.11,3.17.21l1-.15.37,0a8.53,8.53,0,0,1,.68.83l-.64,0A13.3,13.3,0,0,0,4.41,10C1.11,9.8.24,10.1.72,11.12a6.1,6.1,0,0,0,4.37,3.53c1.31.17,2.19-.93,3.4-1.81Z"/><path class="cls-2" d="M14.67,9.88c.18-.25-.21-.33-1-.24l-1.17.12.14-.22a27.94,27.94,0,0,0,7-1.35c3.14-1.09,4.26-1.84,3.52.08a4.69,4.69,0,0,1-2.2,2.1,7.86,7.86,0,0,1-3.07,1,2,2,0,0,1,.3,1.33l.14.11a1.72,1.72,0,0,0,.56-.06l.89-.17c-.13.08-.2.11-.33.2-1,.2-1.46.3-2.26.48.08-.72.3-1.13-.25-1.81-1,.07-1.64.09-2.86.16a7.74,7.74,0,0,0-1.62,2c-.17.33.45.26.66.22l.67-.11-.16.25c-1.42.26-2.09.37-3.56.6a2.45,2.45,0,0,1,0-.27l.8-.11c.33-.05.72-.21.82-.47C12.42,11.83,13.43,11.59,14.67,9.88Zm2.12,1.43a8,8,0,0,0,3.58-.85,4.31,4.31,0,0,0,1.95-1.8c.25-.58.05-.93-.32-1a19.65,19.65,0,0,0-2.51.87A14.61,14.61,0,0,1,17.75,9c-1.2.26-1.69.42-1.92.74a10.24,10.24,0,0,1-1.53,1.69Z"/><path class="cls-2" d="M28.55,8.21c1.54-.44,4.67-1.84,4.54-4C33,3.2,31.69,1.93,29.31,3c-1.66.73-3.06,2.28-3.1,2.93a.36.36,0,0,0,.08.28.37.37,0,0,1,.12.35,1.26,1.26,0,0,1-.8.82c-.4.16-.64.15-.56-.22a7.78,7.78,0,0,1,4.18-4.73c3.08-1.39,5-.11,5.16,1.47s-4,4-4,4,4.46.06,3.05,1.43c-1.06,1-5.38,1.79-9,2.51-2.89.57-3.5.42-2.92,0a2.65,2.65,0,0,1,1.05-.37c.23,0,.64-.08.37.11l-.52.26q-.17.1.18.15a10.93,10.93,0,0,0,2.2-.3c2.56-.5,6.09-1.09,7.3-2.3,1-1-1.43-1.26-4.13-.53-.24.06-.49.14-.72.22l-.39.14-.39.05c-.15,0-.17-.06-.09-.2s.21-.32,1-.55a2,2,0,0,1,.35-.07Z"/><path class="cls-2" d="M39,0c1.46,0,6,3.7,5.19,8.11-.9,5-6.39,3.58-7.87,3.25s-1.47-.13-.06-4.2C37.49,3.57,37.58,0,39,0ZM37.53,7c-.61,2-1.62,2.86-1.66,3.38s.3.63.93.76c1.38.3,5.94.72,6.67-3.45C44,4.51,40.82.5,39.42.52c-.54,0-.84.39-1,1.14C38.1,2.84,38.19,4.86,37.53,7Z"/></g></g></svg>