<svg xmlns="http://www.w3.org/2000/svg" viewBox="0 0 115.86 112.61"><defs><style>.cls-1{fill:#efea3a;}.cls-2{fill:#17499d;}</style></defs><g id="圖層_2" data-name="圖層 2"><g id="圖層_1-2" data-name="圖層 1"><path class="cls-1" d="M33.84,56c.29,4.72-.39,9.81-1.71,22.27C28,80,25.06,80.17,20.06,80.13c-3.63,0-6,0-7,.59s-1.45,1.92-1.42,4.12c0,2.49.66,4.12,1.79,4.91s3.58,1.42,7.11,1.44c8.79,1,19.39-5.2,21.87-13.94a56.08,56.08,0,0,0,1.74-7c.28-1.46.49-3,.86-4.81s.59-2.6.44-2.33-.83,2.29-2.21,5.08a15.94,15.94,0,0,1-3.5,4.91C41.66,61.16,42.4,57,42,52c.57-.43.82-.64,1.34-1.06,3.49-2.78,6.38-5.81,7.94-6.68s2.87-.32,2.84,2.11-3.47,7.82-5.79,13.71c-2.41,6.12-2.1,8.7-1.92,11.08s.61,4.86.84,9.31S48,93.09,46.14,98.71c-2.27,6.7-4.75,10.91-13,13.12a22.68,22.68,0,0,1-11.45.08,25.21,25.21,0,0,1-9.38-4.34A26,26,0,0,1,3.79,98,40.39,40.39,0,0,1,.09,82c-.43-8.4.76-14.6,3.05-18S8.31,59.55,11.72,59s8.58-.61,15.59-1.55A31.27,31.27,0,0,0,33.84,56Z"/><path class="cls-1" d="M1.64,55.68a133.78,133.78,0,0,1-.56-13.82c0-12.15,2.48-21.31,4.49-25s5.21-6.4,8.62-9A36.22,36.22,0,0,1,25,2c3.37-1,4.88-.76,5.58.32s.95,3.29,1.35,8a25.51,25.51,0,0,1,1.52-7.81,21.24,21.24,0,0,1,1-2.15c.18-.27,0-.59,2.25,0A28.41,28.41,0,0,1,47.53,5.49c3.85,3.22,5.83,5.38,7.32,11.38-7.17-3.1-11.56-.92-15.88.27a3.67,3.67,0,0,0-2.81,2.32c-.36,1-.49,3.29-.15,7.12,7.16-2.89,10.11-7.66,19.6-4.14.78,8,1.56,10.19,1.63,14.63-8.55,2-12.88,9.16-20.34,13C26.42,55.53,13,55.05,1.64,55.68ZM13.28,31.73c6.29-1.13,9.55-1.49,14.9-2.74-.14-3.28-.38-5.46-.87-6.6s-2.06-1.44-4.82-.95L19,22.09a5.84,5.84,0,0,0-4.3,2.61C13.89,26.05,13.37,28.38,13.28,31.73Z"/><path class="cls-2" d="M89.8,60.53a8.15,8.15,0,0,1-.35-1.77,7.7,7.7,0,0,0-8.56,0,8.33,8.33,0,0,1-3.52,6.1c0,.29,0,.59,0,.9a8.43,8.43,0,0,0,2.08,5.69,4.16,4.16,0,0,0-1.57,1.62,7.68,7.68,0,0,0-1,3.92,16.06,16.06,0,0,0,.26,2.88Q77.5,82,78.2,82a4.22,4.22,0,0,0,.62-.06l.63-.08c.47,0,.89-.06,1.26-.07s.37-.18.37-.29,0-.08,0-.12a8.89,8.89,0,0,1-.52-2.57c0-1.51.52-2.26,1.56-2.26a1.27,1.27,0,0,1,1.32,1.32,10.11,10.11,0,0,1-.11,1.3,12.6,12.6,0,0,0-.11,1.33.41.41,0,0,0,.33.42,12,12,0,0,0,2.53.16c.25,0,.4-.2.44-.58,0-.06,0-.35,0-.89,0-.11,0-.35,0-.71s0-.64,0-.86c0-1.64.46-2.45,1.38-2.45,1.15,0,1.73.86,1.73,2.58a6.22,6.22,0,0,1-.44,2c-.29.81-.43,1.2-.43,1.18q0,.27.33.39c.64.18,1.12.3,1.45.37l1.46.54a.63.63,0,0,0,.23,0c.3,0,.64-.92,1-2.77a16.17,16.17,0,0,0,.27-3.25,7.56,7.56,0,0,0-1.13-4.28,4.57,4.57,0,0,0-1.18-1.25A8.4,8.4,0,0,0,93,65.76c0-.31,0-.61,0-.9A8.15,8.15,0,0,1,89.8,60.53Zm-2.47,7.59a2.68,2.68,0,0,1-4.34,0,3.76,3.76,0,0,1-.78-2.38A3.67,3.67,0,0,1,83,63.39a2.76,2.76,0,0,1,4.35,0,3.65,3.65,0,0,1,.79,2.35A3.76,3.76,0,0,1,87.33,68.12Z"/><path class="cls-2" d="M114,58.69a14.81,14.81,0,0,0-2.67-1.86A7.51,7.51,0,0,0,107,55.67a4.51,4.51,0,0,0-1.68.4,8.37,8.37,0,0,0-3.76-4.3c-.27-.16-.54-.29-.81-.42a8.1,8.1,0,0,1-5.33.58,7.82,7.82,0,0,1-1.71-.58,7.33,7.33,0,0,0-3.26,3.06,7.26,7.26,0,0,0-1,4.35A7.48,7.48,0,0,1,90.8,60,8.26,8.26,0,0,1,93,64.86c.24.17.49.33.76.49a8.32,8.32,0,0,0,6,1,4.22,4.22,0,0,0,.62,2.18,7.69,7.69,0,0,0,2.9,2.81,15.85,15.85,0,0,0,2.63,1.21c1.37.5,2.18.55,2.41.15.08-.14.16-.33.26-.56s.2-.49.25-.59c.21-.43.39-.81.56-1.13s0-.41-.06-.47l-.11,0a9.06,9.06,0,0,1-2.48-.83c-1.31-.76-1.7-1.58-1.19-2.48a1.31,1.31,0,0,1,.81-.64,1.28,1.28,0,0,1,1,.15,10.13,10.13,0,0,1,1.08.75,11.12,11.12,0,0,0,1.08.76.42.42,0,0,0,.53-.08,10.83,10.83,0,0,0,1.4-2.11c.13-.22,0-.44-.27-.67,0,0-.3-.19-.76-.45l-.63-.34c-.32-.16-.57-.3-.76-.41-1.42-.81-1.89-1.62-1.43-2.42.57-1,1.6-1.06,3.09-.2a6.39,6.39,0,0,1,1.51,1.37c.56.66.83,1,.8,1a.43.43,0,0,0,.51-.09c.47-.47.82-.82,1-1.07l1.2-1a.76.76,0,0,0,.16-.17Q116.07,60.58,114,58.69Zm-13.29,1.6a2.63,2.63,0,0,1-2,1.35,3.79,3.79,0,0,1-2.45-.52,3.62,3.62,0,0,1-1.66-1.85,2.66,2.66,0,0,1,.18-2.42,2.63,2.63,0,0,1,2-1.35,3.7,3.7,0,0,1,2.43.49,3.76,3.76,0,0,1,1.64,1.88A2.64,2.64,0,0,1,100.66,60.29Z"/><path class="cls-2" d="M89.45,44a7.67,7.67,0,0,0,4.27,7.4,9,9,0,0,1,1.71-.58,8.23,8.23,0,0,1,5.33.58c.27-.12.54-.26.81-.41a8.4,8.4,0,0,0,3.88-4.65,4.09,4.09,0,0,0,2.19.55,7.65,7.65,0,0,0,3.89-1.1,17,17,0,0,0,2.36-1.67c1.12-.94,1.56-1.61,1.33-2-.08-.13-.2-.3-.35-.5l-.39-.51c-.27-.39-.5-.75-.7-1.06s-.33-.23-.43-.17l-.1.07a9.18,9.18,0,0,1-2,1.73c-1.31.75-2.22.68-2.74-.22a1.3,1.3,0,0,1-.15-1,1.25,1.25,0,0,1,.62-.79,12,12,0,0,1,1.19-.56,11.33,11.33,0,0,0,1.21-.57.42.42,0,0,0,.2-.49,11.76,11.76,0,0,0-1.13-2.27c-.13-.22-.37-.25-.73-.1L109,36l-.6.38c-.3.2-.55.35-.74.46-1.41.81-2.35.82-2.81,0-.57-1-.11-1.93,1.37-2.79a6.67,6.67,0,0,1,2-.62l1.23-.21a.41.41,0,0,0,.18-.48c-.17-.64-.3-1.12-.4-1.44l-.27-1.53a.62.62,0,0,0-.07-.23c-.15-.26-1.12-.1-2.92.49a16.24,16.24,0,0,0-3,1.39,7.57,7.57,0,0,0-3.13,3.12,4.54,4.54,0,0,0-.5,1.65,8.34,8.34,0,0,0-5.6,1.11,8.25,8.25,0,0,0-.76.49,8.26,8.26,0,0,1-2.17,4.91A8.35,8.35,0,0,1,89.45,44Zm5.07-.5a3.79,3.79,0,0,1,1.65-1.87,3.74,3.74,0,0,1,2.44-.48,2.68,2.68,0,0,1,2.19,3.75,3.76,3.76,0,0,1-1.67,1.86,3.62,3.62,0,0,1-2.44.51,2.77,2.77,0,0,1-2.17-3.77Z"/><path class="cls-2" d="M80.54,42.18A8,8,0,0,1,80.89,44a7.75,7.75,0,0,0,8.56,0,8,8,0,0,1,.35-1.77A8.21,8.21,0,0,1,93,37.85c0-.3,0-.6,0-.91a8.4,8.4,0,0,0-2.08-5.68,4.23,4.23,0,0,0,1.57-1.62,7.58,7.58,0,0,0,1-3.92,16.06,16.06,0,0,0-.26-2.88q-.37-2.16-1.08-2.16a5.81,5.81,0,0,0-.62.05c-.31.05-.52.07-.63.08-.47,0-.89.06-1.26.08s-.37.18-.37.29,0,.07,0,.12a8.83,8.83,0,0,1,.52,2.56c0,1.51-.52,2.27-1.55,2.27a1.3,1.3,0,0,1-1-.38,1.27,1.27,0,0,1-.37-.94A10.24,10.24,0,0,1,87,23.5a12.26,12.26,0,0,0,.11-1.32.41.41,0,0,0-.33-.42,11.25,11.25,0,0,0-2.52-.16c-.26,0-.41.19-.45.58,0,.05,0,.35,0,.88,0,.12,0,.35,0,.71s0,.65,0,.87c0,1.63-.46,2.45-1.38,2.45-1.15,0-1.73-.86-1.73-2.58a6.22,6.22,0,0,1,.44-2c.29-.82.43-1.21.43-1.18a.42.42,0,0,0-.33-.4q-1-.26-1.44-.36L78.4,20a.81.81,0,0,0-.24-.06c-.3,0-.64.93-1,2.78A16.11,16.11,0,0,0,76.86,26,7.52,7.52,0,0,0,78,30.28a4.61,4.61,0,0,0,1.18,1.26,8.35,8.35,0,0,0-1.84,5.4c0,.31,0,.61,0,.91A8.11,8.11,0,0,1,80.54,42.18ZM83,34.59a2.68,2.68,0,0,1,4.34,0,3.8,3.8,0,0,1,.78,2.38,3.67,3.67,0,0,1-.78,2.37,2.77,2.77,0,0,1-4.35,0,3.67,3.67,0,0,1-.79-2.36A3.73,3.73,0,0,1,83,34.59Z"/><path class="cls-2" d="M74.91,50.77a8.39,8.39,0,0,1,1.71.58A7.67,7.67,0,0,0,80.89,44a8.79,8.79,0,0,1-1.35-1.19,8.29,8.29,0,0,1-2.17-4.91,8.25,8.25,0,0,0-.76-.49,8.38,8.38,0,0,0-6-1A4.21,4.21,0,0,0,70,34.15a7.55,7.55,0,0,0-2.9-2.81,16.72,16.72,0,0,0-2.63-1.22c-1.37-.5-2.17-.54-2.41-.14a5.23,5.23,0,0,0-.26.56c-.12.3-.2.49-.25.59-.2.42-.39.8-.56,1.13s0,.41.07.46l.1.05a8.7,8.7,0,0,1,2.48.84c1.31.75,1.7,1.58,1.19,2.48a1.3,1.3,0,0,1-.81.63,1.23,1.23,0,0,1-1-.14q-.37-.22-1.08-.75a11.12,11.12,0,0,0-1.08-.76.41.41,0,0,0-.53.07A11.57,11.57,0,0,0,59,37.25c-.13.22,0,.45.27.68l.76.45.63.33c.32.17.58.3.76.41,1.42.82,1.89,1.63,1.43,2.42q-.86,1.5-3.09.21a6.25,6.25,0,0,1-1.51-1.38,12.17,12.17,0,0,1-.8-1,.43.43,0,0,0-.51.09c-.47.46-.82.82-1,1.07l-1.2,1a.75.75,0,0,0-.16.18q-.22.39,1.89,2.28a15.9,15.9,0,0,0,2.67,1.86A7.59,7.59,0,0,0,63.33,47a4.71,4.71,0,0,0,1.68-.4,8.45,8.45,0,0,0,3.76,4.3c.27.15.54.29.81.41A8.24,8.24,0,0,1,74.91,50.77Zm-3.7-4.06a3.74,3.74,0,0,1-1.64-1.87,2.68,2.68,0,0,1,2.15-3.77,3.84,3.84,0,0,1,2.45.51,3.68,3.68,0,0,1,1.66,1.86,2.77,2.77,0,0,1-2.18,3.77A3.72,3.72,0,0,1,71.21,46.71Z"/><path class="cls-2" d="M80.89,58.76a7.26,7.26,0,0,0-1-4.35,7.33,7.33,0,0,0-3.26-3.06,7.82,7.82,0,0,1-1.71.58,8.16,8.16,0,0,1-5.33-.58c-.27.13-.54.26-.81.42a8.41,8.41,0,0,0-3.88,4.64,4.28,4.28,0,0,0-2.19-.55A7.66,7.66,0,0,0,58.81,57a16.18,16.18,0,0,0-2.36,1.67c-1.12.94-1.56,1.61-1.33,2a4.17,4.17,0,0,0,.36.51l.38.51c.27.39.5.74.7,1s.34.23.43.18l.1-.07a8.69,8.69,0,0,1,2-1.73c1.3-.76,2.21-.68,2.73.21a1.32,1.32,0,0,1,.15,1,1.28,1.28,0,0,1-.62.79,11,11,0,0,1-1.19.56,10.44,10.44,0,0,0-1.2.56.41.41,0,0,0-.2.5A11.51,11.51,0,0,0,59.85,67c.13.22.37.26.73.1l.77-.43c.1,0,.3-.18.6-.38l.74-.45C64.1,65,65,65,65.5,65.81c.57,1,.11,1.92-1.37,2.78a6.12,6.12,0,0,1-1.95.62L61,69.43a.41.41,0,0,0-.18.48c.17.64.3,1.12.4,1.43l.27,1.54a.62.62,0,0,0,.07.23c.15.26,1.12.09,2.92-.5a16.11,16.11,0,0,0,2.95-1.38,7.72,7.72,0,0,0,3.14-3.12A4.72,4.72,0,0,0,71,66.46a8.45,8.45,0,0,0,5.6-1.11c.27-.16.52-.32.76-.49A8.24,8.24,0,0,1,79.54,60,7.84,7.84,0,0,1,80.89,58.76Zm-5.07.5a3.89,3.89,0,0,1-4.09,2.34,2.67,2.67,0,0,1-2.19-3.74A3.78,3.78,0,0,1,71.21,56a3.74,3.74,0,0,1,2.44-.51,2.66,2.66,0,0,1,2,1.37A2.63,2.63,0,0,1,75.82,59.26Z"/></g></g></svg>